<svg width="24" height="24" viewBox="0 0 24 24" fill="none" xmlns="http://www.w3.org/2000/svg">
<path d="M4.46187 4.47059C5.00208 3.559 5.98311 3 7.04275 3H21C22.6569 3 24 4.34315 24 6V18C24 19.6569 22.6569 21 21 21H7.04274C5.98311 21 5.00207 20.441 4.46187 19.5294L0.906314 13.5294C0.347481 12.5864 0.347481 11.4136 0.906315 10.4706L4.46187 4.47059Z" fill="#E6E6E6"/>
<path d="M13.4999 11.2929L16.6821 8.11084L17.3891 8.81784L14.2069 11.9999L17.3891 15.1821L16.6821 15.8891L13.4999 12.7069L10.3178 15.8891L9.61084 15.1821L12.7929 11.9999L9.61084 8.81784L10.3178 8.11084L13.4999 11.2929Z" fill="black"/>
</svg>
